<svg xmlns="http://www.w3.org/2000/svg" xmlns:xlink="http://www.w3.org/1999/xlink" width="640" height="640"><defs><path d="M387.69 101.42c19.1-10.02 39.8-31.44 62.08-64.25-24.76-10.25-53.06-10.25-84.91 0-31.85 10.25-65.86 39.31-102.03 87.17 64.13-5.26 105.75-12.91 124.86-22.92z" id="a"/><path d="M174.7 222.58c59.97 9.92 129.55 109.07 122.89 65.43-6.66-43.64 215.98-53.77 134.04-96.44-54.62-28.44-118.73-38.85-192.34-31.22-83.04 34.88-104.58 55.62-64.59 62.23z" id="b"/><path d="M304.98 306.78c34.64 27.66 51.76 25.8 51.36-5.58-.6-47.07-77.63-210.86-102.46-228.25-16.55-11.59-28.14-10.22-34.76 4.1l85.86 229.73z" id="c"/><path d="M243.82 162.15C120.47 182.45 58.08 236.9 56.64 325.51c-2.15 132.91 63.39 269.31 112.71 281.26 49.32 11.95 56.8 8.76 93.42 8.51 36.61-.25 45.05 20 157.75 0 112.69-20 161.98-160.48 162.89-289.77.91-129.3-190.19-208.21-220.29-140.17-30.1 68.04-112.3 56.78-129.11 38.86" id="d"/><path d="M461.37 524.29c28.87-15.87 39.34-61.88 32.59-91.25" id="e"/><path d="M387.69 576.95c14.81 3.97 25.66 3.25 32.55-2.15" id="f"/><path d="M434.82 570.28c85.52-53.49 94.52-105.94 75.75-209.19" id="g"/></defs><use xlink:href="#a" fill="#ffa"/><use xlink:href="#a" fill-opacity="0" stroke="#000" stroke-width="15"/><use xlink:href="#b" fill="#ffa"/><use xlink:href="#b" fill-opacity="0" stroke="#000" stroke-width="24"/><use xlink:href="#c" fill="#b68948"/><use xlink:href="#c" fill-opacity="0" stroke="#000" stroke-width="20"/><use xlink:href="#d" fill="#ffa"/><use xlink:href="#d" fill-opacity="0" stroke="#000" stroke-width="24"/><use xlink:href="#e" fill-opacity="0" stroke="#000" stroke-width="10"/><use xlink:href="#f" fill-opacity="0" stroke="#000" stroke-width="9"/><use xlink:href="#g" fill-opacity="0" stroke="#000" stroke-width="15"/></svg>