<?xml version="1.0" encoding="UTF-8" standalone="no"?>
<!DOCTYPE svg PUBLIC "-//W3C//DTD SVG 1.1//EN" "http://www.w3.org/Graphics/SVG/1.1/DTD/svg11.dtd">
<svg version="1.1" xmlns="http://www.w3.org/2000/svg" xmlns:xlink="http://www.w3.org/1999/xlink" preserveAspectRatio="xMidYMid meet" viewBox="0 0 640 640" width="640" height="640"><defs><path d="M387.69 101.42C406.79 91.4 427.49 69.98 449.77 37.17C425.01 26.92 396.71 26.92 364.86 37.17C333.01 47.42 299 76.48 262.83 124.34C326.96 119.08 368.58 111.43 387.69 101.42Z" id="d3H7QJRdVJ"></path><path d="M174.7 222.58C234.67 232.5 304.25 331.65 297.59 288.01C290.93 244.37 513.57 234.24 431.63 191.57C377.01 163.13 312.9 152.72 239.29 160.35C156.25 195.23 134.71 215.97 174.7 222.58Z" id="d28w1RwVtz"></path><path d="M304.98 306.78C339.62 334.44 356.74 332.58 356.34 301.2C355.74 254.13 278.71 90.34 253.88 72.95C237.33 61.36 225.74 62.73 219.12 77.05L304.98 306.78Z" id="a2mM2bmXgg"></path><path d="M243.82 162.15C120.47 182.45 58.08 236.9 56.64 325.51C54.49 458.42 120.03 594.82 169.35 606.77C218.67 618.72 226.15 615.53 262.77 615.28C299.38 615.03 307.82 635.28 420.52 615.28C533.21 595.28 582.5 454.8 583.41 325.51C584.32 196.21 393.22 117.3 363.12 185.34C333.02 253.38 250.82 242.12 234.01 224.2" id="db6G3qqBz"></path><path d="M461.37 524.29C490.24 508.42 500.71 462.41 493.96 433.04" id="b45JupsRWD"></path><path d="M387.69 576.95C402.5 580.92 413.35 580.2 420.24 574.8" id="j3o0yzIoje"></path><path d="M434.82 570.28C520.34 516.79 529.34 464.34 510.57 361.09" id="b3suimxMoI"></path></defs><g><g><g><use xlink:href="#d3H7QJRdVJ" opacity="1" fill="#ffffaa" fill-opacity="1"></use><g><use xlink:href="#d3H7QJRdVJ" opacity="1" fill-opacity="0" stroke="#000000" stroke-width="15" stroke-opacity="1"></use></g></g><g><use xlink:href="#d28w1RwVtz" opacity="1" fill="#ffffaa" fill-opacity="1"></use><g><use xlink:href="#d28w1RwVtz" opacity="1" fill-opacity="0" stroke="#000000" stroke-width="24" stroke-opacity="1"></use></g></g><g><use xlink:href="#a2mM2bmXgg" opacity="1" fill="#b68948" fill-opacity="1"></use><g><use xlink:href="#a2mM2bmXgg" opacity="1" fill-opacity="0" stroke="#000000" stroke-width="20" stroke-opacity="1"></use></g></g><g><use xlink:href="#db6G3qqBz" opacity="1" fill="#ffffaa" fill-opacity="1"></use><g><use xlink:href="#db6G3qqBz" opacity="1" fill-opacity="0" stroke="#000000" stroke-width="24" stroke-opacity="1"></use></g></g><g><g><use xlink:href="#b45JupsRWD" opacity="1" fill-opacity="0" stroke="#000000" stroke-width="10" stroke-opacity="1"></use></g></g><g><g><use xlink:href="#j3o0yzIoje" opacity="1" fill-opacity="0" stroke="#000000" stroke-width="9" stroke-opacity="1"></use></g></g><g><g><use xlink:href="#b3suimxMoI" opacity="1" fill-opacity="0" stroke="#000000" stroke-width="15" stroke-opacity="1"></use></g></g></g></g></svg>